<svg xmlns="http://www.w3.org/2000/svg" viewBox="0 0 200 200">
  <rect width="200" height="200" rx="20" fill="#1a1a4e"/>
  <rect x="55" y="55" width="90" height="90" rx="8" fill="#2d1b69" stroke="#ff6bdb" stroke-width="3"/>
  <rect x="65" y="65" width="70" height="70" rx="5" fill="#4a0080" stroke="#ff6bdb" stroke-width="2"/>
  <text x="100" y="107" text-anchor="middle" font-size="22" fill="#ff6bdb" font-family="monospace" font-weight="bold">CPU</text>
  <line x1="30" y1="75" x2="55" y2="75" stroke="#ffe06b" stroke-width="3" stroke-linecap="round"/>
  <line x1="30" y1="90" x2="55" y2="90" stroke="#ffe06b" stroke-width="3" stroke-linecap="round"/>
  <line x1="30" y1="105" x2="55" y2="105" stroke="#ffe06b" stroke-width="3" stroke-linecap="round"/>
  <line x1="30" y1="120" x2="55" y2="120" stroke="#ffe06b" stroke-width="3" stroke-linecap="round"/>
  <line x1="145" y1="75" x2="170" y2="75" stroke="#ffe06b" stroke-width="3" stroke-linecap="round"/>
  <line x1="145" y1="90" x2="170" y2="90" stroke="#ffe06b" stroke-width="3" stroke-linecap="round"/>
  <line x1="145" y1="105" x2="170" y2="105" stroke="#ffe06b" stroke-width="3" stroke-linecap="round"/>
  <line x1="145" y1="120" x2="170" y2="120" stroke="#ffe06b" stroke-width="3" stroke-linecap="round"/>
  <line x1="75" y1="30" x2="75" y2="55" stroke="#ffe06b" stroke-width="3" stroke-linecap="round"/>
  <line x1="90" y1="30" x2="90" y2="55" stroke="#ffe06b" stroke-width="3" stroke-linecap="round"/>
  <line x1="105" y1="30" x2="105" y2="55" stroke="#ffe06b" stroke-width="3" stroke-linecap="round"/>
  <line x1="120" y1="30" x2="120" y2="55" stroke="#ffe06b" stroke-width="3" stroke-linecap="round"/>
  <line x1="75" y1="145" x2="75" y2="170" stroke="#ffe06b" stroke-width="3" stroke-linecap="round"/>
  <line x1="90" y1="145" x2="90" y2="170" stroke="#ffe06b" stroke-width="3" stroke-linecap="round"/>
  <line x1="105" y1="145" x2="105" y2="170" stroke="#ffe06b" stroke-width="3" stroke-linecap="round"/>
  <line x1="120" y1="145" x2="120" y2="170" stroke="#ffe06b" stroke-width="3" stroke-linecap="round"/>
</svg>
