<svg xmlns="http://www.w3.org/2000/svg" viewBox="0 0 200 200">
  <rect width="200" height="200" rx="20" fill="#1a1a4e"/>
  <rect x="15" y="70" width="170" height="80" rx="10" fill="#1a0030" stroke="#ff6bdb" stroke-width="2.5"/>
  <rect x="25" y="80" width="14" height="12" rx="3" fill="#ff6bdb" opacity="0.7"/>
  <rect x="43" y="80" width="14" height="12" rx="3" fill="#ff6bdb" opacity="0.7"/>
  <rect x="61" y="80" width="14" height="12" rx="3" fill="#ff6bdb" opacity="0.7"/>
  <rect x="79" y="80" width="14" height="12" rx="3" fill="#ff6bdb" opacity="0.7"/>
  <rect x="97" y="80" width="14" height="12" rx="3" fill="#ff6bdb" opacity="0.7"/>
  <rect x="115" y="80" width="14" height="12" rx="3" fill="#ff6bdb" opacity="0.7"/>
  <rect x="133" y="80" width="14" height="12" rx="3" fill="#ff6bdb" opacity="0.7"/>
  <rect x="151" y="80" width="25" height="12" rx="3" fill="#a46bff" opacity="0.7"/>
  <rect x="25" y="96" width="22" height="12" rx="3" fill="#a46bff" opacity="0.7"/>
  <rect x="51" y="96" width="14" height="12" rx="3" fill="#ff6bdb" opacity="0.7"/>
  <rect x="69" y="96" width="14" height="12" rx="3" fill="#ff6bdb" opacity="0.7"/>
  <rect x="87" y="96" width="14" height="12" rx="3" fill="#ff6bdb" opacity="0.7"/>
  <rect x="105" y="96" width="14" height="12" rx="3" fill="#ff6bdb" opacity="0.7"/>
  <rect x="123" y="96" width="14" height="12" rx="3" fill="#ff6bdb" opacity="0.7"/>
  <rect x="141" y="96" width="35" height="12" rx="3" fill="#a46bff" opacity="0.7"/>
  <rect x="50" y="112" width="100" height="14" rx="4" fill="#ffe06b" opacity="0.8"/>
  <text x="100" y="168" text-anchor="middle" font-size="12" fill="#ff6bdb" font-family="monospace" font-weight="bold">KEYBOARD</text>
</svg>
